<svg id="visual" viewBox="0 0 900 600" width="900" height="600" xmlns="http://www.w3.org/2000/svg" xmlns:xlink="http://www.w3.org/1999/xlink" version="1.1"><path d="M0 414L21.5 412.2C43 410.3 86 406.7 128.8 399C171.7 391.3 214.3 379.7 257.2 383.2C300 386.7 343 405.3 385.8 409.8C428.7 414.3 471.3 404.7 514.2 397.8C557 391 600 387 642.8 391.5C685.7 396 728.3 409 771.2 412C814 415 857 408 878.5 404.5L900 401L900 601L878.5 601C857 601 814 601 771.2 601C728.3 601 685.7 601 642.8 601C600 601 557 601 514.2 601C471.3 601 428.7 601 385.8 601C343 601 300 601 257.2 601C214.3 601 171.7 601 128.8 601C86 601 43 601 21.5 601L0 601Z" fill="#0066ff"></path><path d="M0 419L21.5 417.7C43 416.3 86 413.7 128.8 415.8C171.7 418 214.3 425 257.2 424C300 423 343 414 385.8 421.8C428.7 429.7 471.3 454.3 514.2 465.7C557 477 600 475 642.8 472C685.7 469 728.3 465 771.2 461.7C814 458.3 857 455.7 878.5 454.3L900 453L900 601L878.5 601C857 601 814 601 771.2 601C728.3 601 685.7 601 642.8 601C600 601 557 601 514.2 601C471.3 601 428.7 601 385.8 601C343 601 300 601 257.2 601C214.3 601 171.7 601 128.8 601C86 601 43 601 21.5 601L0 601Z" fill="#007aff"></path><path d="M0 497L21.5 488.7C43 480.3 86 463.7 128.8 459C171.7 454.3 214.3 461.7 257.2 469C300 476.3 343 483.7 385.8 479.2C428.7 474.7 471.3 458.3 514.2 453.2C557 448 600 454 642.8 461.8C685.7 469.7 728.3 479.3 771.2 478.8C814 478.3 857 467.7 878.5 462.3L900 457L900 601L878.5 601C857 601 814 601 771.2 601C728.3 601 685.7 601 642.8 601C600 601 557 601 514.2 601C471.3 601 428.7 601 385.8 601C343 601 300 601 257.2 601C214.3 601 171.7 601 128.8 601C86 601 43 601 21.5 601L0 601Z" fill="#008cff"></path><path d="M0 517L21.5 521.3C43 525.7 86 534.3 128.8 529.3C171.7 524.3 214.3 505.7 257.2 505.5C300 505.3 343 523.7 385.8 523.8C428.7 524 471.3 506 514.2 499.3C557 492.7 600 497.3 642.8 503.7C685.7 510 728.3 518 771.2 516.2C814 514.3 857 502.7 878.5 496.8L900 491L900 601L878.5 601C857 601 814 601 771.2 601C728.3 601 685.7 601 642.8 601C600 601 557 601 514.2 601C471.3 601 428.7 601 385.8 601C343 601 300 601 257.2 601C214.3 601 171.7 601 128.8 601C86 601 43 601 21.5 601L0 601Z" fill="#2b9dfc"></path><path d="M0 558L21.5 554C43 550 86 542 128.8 541.5C171.7 541 214.3 548 257.2 547.2C300 546.3 343 537.7 385.8 534C428.7 530.3 471.3 531.7 514.2 538C557 544.3 600 555.7 642.8 555C685.7 554.3 728.3 541.7 771.2 537.2C814 532.7 857 536.3 878.5 538.2L900 540L900 601L878.5 601C857 601 814 601 771.2 601C728.3 601 685.7 601 642.8 601C600 601 557 601 514.2 601C471.3 601 428.7 601 385.8 601C343 601 300 601 257.2 601C214.3 601 171.7 601 128.8 601C86 601 43 601 21.5 601L0 601Z" fill="#4facf7"></path></svg>